/* XPM */
static const char* square[] = { "16 16 3 1 0 0", "  c #00C300", "! c #000000",
    "# c None", "                ", "                ", "   !!!!!!!!!!   ",
    "   !!!!!!!!!!   ", "   !!!!!!!!!!   ", "   !!!!!!!!!!   ",
    "   !!!!!!!!!!   ", "   !!!!!!!!!!   ", "   !!!!!!!!!!   ",
    "   !!!!!!!!!!   ", "   !!!!!!!!!!   ", "   !!!!!!!!!!   ",
    "   !!!!!!!!!!   ", "   !!!!!!!!!!   ", "                ",
    "                " };
